<?xml version="1.0" encoding="iso-8859-1"?>
<!-- Generator: Adobe Illustrator 19.0.0, SVG Export Plug-In . SVG Version: 6.00 Build 0)  -->
<svg xmlns="http://www.w3.org/2000/svg" xmlns:xlink="http://www.w3.org/1999/xlink" version="1.1" id="Layer_1" x="0px" y="0px" viewBox="0 0 491.52 491.52" style="enable-background:new 0 0 491.52 491.52;" xml:space="preserve">
<circle style="fill:#EA8953;" cx="245.76" cy="245.76" r="245.76"/>
<path style="opacity:0.1;enable-background:new    ;" d="M384.102,107.387c-1.485-1.485-3.43-2.406-5.632-2.406H113.05  c-4.454,0-8.09,3.789-8.09,8.448v214.835c0,2.253,0.87,4.25,2.253,5.786l0.717,0.717l156.012,156.013  C391.172,481.464,491.52,375.367,491.52,245.76c0-11.287-0.828-22.374-2.301-33.256l-104.86-104.86L384.102,107.387z"/>
<path style="fill:#64798A;" d="M386.56,113.417c0-4.67-3.627-8.457-8.102-8.457H113.062c-4.474,0-8.102,3.786-8.102,8.457v183.694  h281.6V113.417z"/>
<g>
	<rect x="121.027" y="121.728" style="fill:#EBF0F3;" width="249.467" height="158.612"/>
	<path style="fill:#EBF0F3;" d="M104.96,297.111v31.167c0,4.671,3.628,8.457,8.102,8.457h265.395c4.475,0,8.102-3.786,8.102-8.457   v-31.167H104.96z"/>
</g>
<ellipse style="fill:#64798A;" cx="245.76" cy="316.923" rx="10.998" ry="11.479"/>
<rect x="205.619" y="336.732" style="fill:#E1E6E9;" width="80.328" height="36.198"/>
<polygon style="fill:#D5D6DB;" points="285.924,372.936 205.596,336.734 285.924,336.734 "/>
<polygon style="fill:#EBF0F3;" points="285.924,372.936 205.596,372.936 195.291,386.56 296.229,386.56 "/>
<rect x="139.11" y="175.514" style="fill:#FCD462;" width="58.051" height="39.962"/>
<rect x="216.73" y="175.514" style="fill:#44C4A1;" width="58.051" height="39.962"/>
<rect x="294.4" y="175.514" style="fill:#E56353;" width="58.051" height="39.962"/>
<rect x="139.11" y="208.737" style="fill:#F6C358;" width="58.051" height="6.717"/>
<rect x="216.73" y="208.737" style="fill:#3EA69B;" width="58.051" height="6.717"/>
<rect x="294.4" y="208.737" style="fill:#D15241;" width="58.051" height="6.717"/>
<g>
	<rect x="139.11" y="228.736" style="fill:#D5D6DB;" width="58.051" height="5.12"/>
	<rect x="139.11" y="246.835" style="fill:#D5D6DB;" width="58.051" height="5.12"/>
	<rect x="139.11" y="264.945" style="fill:#D5D6DB;" width="33.29" height="5.12"/>
	<rect x="216.73" y="228.736" style="fill:#D5D6DB;" width="58.045" height="5.12"/>
	<rect x="216.73" y="246.835" style="fill:#D5D6DB;" width="58.045" height="5.12"/>
	<rect x="216.73" y="264.945" style="fill:#D5D6DB;" width="33.285" height="5.12"/>
	<rect x="294.4" y="228.736" style="fill:#D5D6DB;" width="58.051" height="5.12"/>
	<rect x="294.4" y="246.835" style="fill:#D5D6DB;" width="58.051" height="5.12"/>
	<rect x="294.4" y="264.945" style="fill:#D5D6DB;" width="33.285" height="5.12"/>
</g>
<rect x="139.11" y="136.105" style="fill:#31978C;" width="50.028" height="5.12"/>
<rect x="139.11" y="157.076" style="fill:#D5D6DB;" width="213.345" height="5.12"/>
<g>
</g>
<g>
</g>
<g>
</g>
<g>
</g>
<g>
</g>
<g>
</g>
<g>
</g>
<g>
</g>
<g>
</g>
<g>
</g>
<g>
</g>
<g>
</g>
<g>
</g>
<g>
</g>
<g>
</g>
</svg>
