<?xml version="1.0" encoding="UTF-8" standalone="no"?>
<!-- Generator: Adobe Illustrator 19.0.0, SVG Export Plug-In . SVG Version: 6.00 Build 0)  -->

<svg
   xmlns:dc="http://purl.org/dc/elements/1.1/"
   xmlns:cc="http://creativecommons.org/ns#"
   xmlns:rdf="http://www.w3.org/1999/02/22-rdf-syntax-ns#"
   xmlns:svg="http://www.w3.org/2000/svg"
   xmlns="http://www.w3.org/2000/svg"
   xmlns:sodipodi="http://sodipodi.sourceforge.net/DTD/sodipodi-0.dtd"
   xmlns:inkscape="http://www.inkscape.org/namespaces/inkscape"
   version="1.1"
   id="Layer_1"
   x="0px"
   y="0px"
   viewBox="0 0 512 512"
   style="enable-background:new 0 0 512 512;"
   xml:space="preserve"
   inkscape:version="0.91 r13725"
   sodipodi:docname="page-stats.svg"><metadata
     id="metadata87"><rdf:RDF><cc:Work
         rdf:about=""><dc:format>image/svg+xml</dc:format><dc:type
           rdf:resource="http://purl.org/dc/dcmitype/StillImage" /><dc:title></dc:title></cc:Work></rdf:RDF></metadata><defs
     id="defs85" /><sodipodi:namedview
     pagecolor="#ffffff"
     bordercolor="#666666"
     borderopacity="1"
     objecttolerance="10"
     gridtolerance="10"
     guidetolerance="10"
     inkscape:pageopacity="0"
     inkscape:pageshadow="2"
     inkscape:window-width="976"
     inkscape:window-height="831"
     id="namedview83"
     showgrid="false"
     showguides="false"
     inkscape:zoom="0.4609375"
     inkscape:cx="256"
     inkscape:cy="256"
     inkscape:window-x="433"
     inkscape:window-y="222"
     inkscape:window-maximized="0"
     inkscape:current-layer="Layer_1" /><path
     style="fill:#324A5E;"
     d="M310.16,455.111H201.842c-17.218,0-31.175-13.957-31.175-31.173v-250.54  c0-17.217,13.957-31.173,31.173-31.173h108.318c17.217,0,31.173,13.957,31.173,31.173v250.54  C341.333,441.154,327.377,455.111,310.16,455.111z"
     id="path7" /><circle
     style="fill:#FFD15D;"
     cx="256"
     cy="256"
     r="256"
     id="circle3" /><g
     id="g53" /><g
     id="g55" /><g
     id="g57" /><g
     id="g59" /><g
     id="g61" /><g
     id="g63" /><g
     id="g65" /><g
     id="g67" /><g
     id="g69" /><g
     id="g71" /><g
     id="g73" /><g
     id="g75" /><g
     id="g77" /><g
     id="g79" /><g
     id="g81" /><rect
     x="118.03805"
     y="122.96098"
     style="fill:#f2f2f2"
     width="268.60168"
     height="303.54333"
     id="rect3" /><rect
     y="87.665169"
     x="118.03805"
     style="fill:#84dbff"
     width="268.60168"
     height="35.295815"
     id="rect5" /><g
     id="g7"
     transform="matrix(0.69288489,0,0,0.67558262,118.03805,87.665172)"><rect
       x="107.624"
       y="303.01999"
       style="fill:#cdd6e0"
       width="24.033001"
       height="50.154999"
       id="rect9" /><rect
       x="63.738998"
       y="271.673"
       style="fill:#cdd6e0"
       width="24.033001"
       height="82.546997"
       id="rect11" /><rect
       x="20.898001"
       y="318.694"
       style="fill:#cdd6e0"
       width="24.033001"
       height="35.527"
       id="rect13" /><rect
       x="194.351"
       y="227.78799"
       style="fill:#cdd6e0"
       width="24.033001"
       height="125.388"
       id="rect15" /><rect
       x="150.465"
       y="246.59599"
       style="fill:#cdd6e0"
       width="24.033001"
       height="106.58"
       id="rect17" /></g><rect
     x="132.51797"
     y="332.61792"
     style="fill:#40596b"
     width="136.83505"
     height="6.353179"
     id="rect19" /><rect
     x="132.51797"
     y="365.08978"
     style="fill:#ffd15c"
     width="136.83505"
     height="16.236279"
     id="rect21" /><rect
     x="132.51797"
     y="394.03241"
     style="fill:#ff7058"
     width="136.83505"
     height="16.236279"
     id="rect23" /><rect
     x="132.51797"
     y="152.6096"
     style="fill:#ffd15c"
     width="63.711456"
     height="59.296566"
     id="rect25" /><rect
     x="220.12148"
     y="152.6096"
     style="fill:#ff7058"
     width="63.711456"
     height="59.296566"
     id="rect27" /><rect
     x="308.44836"
     y="152.6096"
     style="fill:#acb3ba"
     width="63.711456"
     height="59.296566"
     id="rect29" /><g
     id="g31"
     transform="matrix(0.69288489,0,0,0.67558262,118.03805,87.665172)"><rect
       x="364.66901"
       y="253.91"
       style="fill:#cdd6e0"
       width="45.976002"
       height="45.976002"
       id="rect33" /><rect
       x="283.14801"
       y="283.20901"
       transform="matrix(-0.7071,0.7071,-0.7071,-0.7071,739.1205,306.2401)"
       style="fill:#cdd6e0"
       width="45.974998"
       height="45.974998"
       id="rect35" /></g><rect
     x="360.57614"
     y="239.43683"
     style="fill:#acb3ba"
     width="52.127811"
     height="19.76552"
     id="rect37" /><ellipse
     style="fill:#4cdbc4"
     cx="386.63974"
     cy="349.55951"
     id="circle39"
     rx="78.915428"
     ry="76.944801" /><path
     inkscape:connector-curvature="0"
     style="fill:#ffffff"
     d="m 386.63972,408.85674 c -33.30351,0 -60.8152,-26.82468 -60.8152,-59.29656 0,-32.47188 27.51169,-59.29656 60.8152,-59.29656 33.30352,0 60.8152,26.82468 60.8152,59.29656 7e-4,32.4712 -27.51168,59.29656 -60.8152,59.29656 z"
     id="path41" /><rect
     x="371.05188"
     y="259.44962"
     style="fill:#b8cad8"
     width="31.856077"
     height="7.0591631"
     id="rect43" /><g
     id="g45"
     transform="matrix(0.69288489,0,0,0.67558262,118.03805,87.665172)"><rect
       x="386.612"
       y="310.33499"
       style="fill:#acb3ba"
       width="2.0899999"
       height="9.4040003"
       id="rect47" /><rect
       x="386.612"
       y="455.57501"
       style="fill:#acb3ba"
       width="2.0899999"
       height="9.4040003"
       id="rect49" /><polygon
       style="fill:#acb3ba"
       points="373.029,311.38 375.118,320.784 377.208,320.784 375.118,311.38 "
       id="polygon51" /><polygon
       style="fill:#acb3ba"
       points="398.106,454.531 400.196,463.935 402.286,463.935 400.196,454.531 "
       id="polygon53" /><rect
       x="361.479"
       y="314.61301"
       transform="matrix(-0.9398,0.3416,-0.3416,-0.9398,812.3206,495.5773)"
       style="fill:#acb3ba"
       width="2.0899999"
       height="9.4040003"
       id="rect55" /><rect
       x="411.66501"
       y="451.32501"
       transform="matrix(-0.9398,0.3416,-0.3416,-0.9398,956.3769,743.6309)"
       style="fill:#acb3ba"
       width="2.0899999"
       height="9.4040003"
       id="rect57" /><polygon
       style="fill:#acb3ba"
       points="347.951,320.784 353.176,329.143 354.22,328.098 350.041,319.739 "
       id="polygon59" /><polygon
       style="fill:#acb3ba"
       points="421.094,447.216 425.273,455.575 427.363,454.531 423.184,446.171 "
       id="polygon61" /><polygon
       style="fill:#acb3ba"
       points="337.502,329.143 342.727,336.457 344.816,334.367 338.547,328.098 "
       id="polygon63" /><polygon
       style="fill:#acb3ba"
       points="430.498,440.947 436.767,447.216 437.812,446.171 432.588,438.857 "
       id="polygon65" /><polygon
       style="fill:#acb3ba"
       points="328.098,338.547 334.367,344.816 336.457,342.727 329.143,337.502 "
       id="polygon67" /><polygon
       style="fill:#acb3ba"
       points="438.857,432.588 446.171,437.812 447.216,436.767 440.947,430.498 "
       id="polygon69" /><polygon
       style="fill:#acb3ba"
       points="329.143,353.176 320.784,347.951 319.739,350.041 328.098,354.22 "
       id="polygon71" /><polygon
       style="fill:#acb3ba"
       points="446.171,423.184 454.531,427.363 455.575,425.273 447.216,421.094 "
       id="polygon73" /><rect
       x="318.67001"
       y="357.811"
       transform="matrix(-0.3416,0.9398,-0.9398,-0.3416,769.6383,185.8718)"
       style="fill:#acb3ba"
       width="2.0899999"
       height="9.4040003"
       id="rect75" /><polygon
       style="fill:#acb3ba"
       points="451.396,411.69 459.755,414.824 460.8,412.735 452.441,409.6 "
       id="polygon77" /><polygon
       style="fill:#acb3ba"
       points="320.784,375.118 311.38,373.029 311.38,375.118 320.784,377.208 "
       id="polygon79" /><polygon
       style="fill:#acb3ba"
       points="454.531,400.196 463.935,402.286 463.935,400.196 454.531,398.106 "
       id="polygon81" /><rect
       x="310.33499"
       y="386.612"
       style="fill:#acb3ba"
       width="9.4040003"
       height="2.0899999"
       id="rect83" /><rect
       x="455.57501"
       y="386.612"
       style="fill:#acb3ba"
       width="9.4040003"
       height="2.0899999"
       id="rect85" /><polygon
       style="fill:#acb3ba"
       points="320.784,398.106 311.38,400.196 311.38,402.286 320.784,400.196 "
       id="polygon87" /><polygon
       style="fill:#acb3ba"
       points="454.531,377.208 463.935,375.118 463.935,373.029 454.531,375.118 "
       id="polygon89" /><rect
       x="314.54401"
       y="411.745"
       transform="matrix(-0.9398,0.3416,-0.3416,-0.9398,760.3004,691.6883)"
       style="fill:#acb3ba"
       width="9.4040003"
       height="2.0899999"
       id="rect91" /><polygon
       style="fill:#acb3ba"
       points="452.441,365.714 460.8,362.58 459.755,360.49 451.396,363.624 "
       id="polygon93" /><polygon
       style="fill:#acb3ba"
       points="328.098,421.094 319.739,425.273 320.784,427.363 329.143,423.184 "
       id="polygon95" /><polygon
       style="fill:#acb3ba"
       points="447.216,354.22 455.575,350.041 454.531,347.951 446.171,353.176 "
       id="polygon97" /><polygon
       style="fill:#acb3ba"
       points="328.098,436.767 329.143,437.812 336.457,432.588 334.367,430.498 "
       id="polygon99" /><polygon
       style="fill:#acb3ba"
       points="447.216,338.547 446.171,337.502 438.857,342.727 440.947,344.816 "
       id="polygon101" /><polygon
       style="fill:#acb3ba"
       points="337.502,446.171 338.547,447.216 344.816,440.947 342.727,438.857 "
       id="polygon103" /><polygon
       style="fill:#acb3ba"
       points="436.767,328.098 430.498,334.367 432.588,336.457 437.812,329.143 "
       id="polygon105" /><polygon
       style="fill:#acb3ba"
       points="353.176,446.171 347.951,454.531 350.041,455.575 354.22,447.216 "
       id="polygon107" /><polygon
       style="fill:#acb3ba"
       points="425.273,319.739 421.094,328.098 423.184,329.143 427.363,320.784 "
       id="polygon109" /><rect
       x="357.728"
       y="454.62701"
       transform="matrix(-0.3427,0.9394,-0.9394,-0.3427,914.7166,271.3558)"
       style="fill:#acb3ba"
       width="9.4040003"
       height="2.0899999"
       id="rect111" /><rect
       x="408.11301"
       y="318.785"
       transform="matrix(-0.3416,0.9398,-0.9398,-0.3416,854.428,41.1086)"
       style="fill:#acb3ba"
       width="9.4040003"
       height="2.0899999"
       id="rect113" /><polygon
       style="fill:#acb3ba"
       points="375.118,454.531 373.029,463.935 375.118,463.935 377.208,454.531 "
       id="polygon115" /><polygon
       style="fill:#acb3ba"
       points="400.196,311.38 398.106,320.784 400.196,320.784 402.286,311.38 "
       id="polygon117" /></g><path
     inkscape:connector-curvature="0"
     style="fill:#ff7058"
     d="m 395.32781,350.26549 c 0,4.94121 -3.61963,8.47113 -8.68809,8.47113 -5.06776,0 -8.68808,-3.52925 -8.68808,-8.47113 0,-4.94121 8.68808,-29.64862 8.68808,-29.64862 0,0 8.68809,24.70741 8.68809,29.64862 z"
     id="path119" /><ellipse
     style="fill:#ffffff"
     cx="386.63974"
     cy="350.26547"
     id="circle121"
     rx="4.3436952"
     ry="4.2352276" /><g
     id="g123"
     transform="matrix(0.69288489,0,0,0.67558262,118.03805,87.665172)" /><g
     id="g125"
     transform="matrix(0.69288489,0,0,0.67558262,118.03805,87.665172)" /><g
     id="g127"
     transform="matrix(0.69288489,0,0,0.67558262,118.03805,87.665172)" /><g
     id="g129"
     transform="matrix(0.69288489,0,0,0.67558262,118.03805,87.665172)" /><g
     id="g131"
     transform="matrix(0.69288489,0,0,0.67558262,118.03805,87.665172)" /><g
     id="g133"
     transform="matrix(0.69288489,0,0,0.67558262,118.03805,87.665172)" /><g
     id="g135"
     transform="matrix(0.69288489,0,0,0.67558262,118.03805,87.665172)" /><g
     id="g137"
     transform="matrix(0.69288489,0,0,0.67558262,118.03805,87.665172)" /><g
     id="g139"
     transform="matrix(0.69288489,0,0,0.67558262,118.03805,87.665172)" /><g
     id="g141"
     transform="matrix(0.69288489,0,0,0.67558262,118.03805,87.665172)" /><g
     id="g143"
     transform="matrix(0.69288489,0,0,0.67558262,118.03805,87.665172)" /><g
     id="g145"
     transform="matrix(0.69288489,0,0,0.67558262,118.03805,87.665172)" /><g
     id="g147"
     transform="matrix(0.69288489,0,0,0.67558262,118.03805,87.665172)" /><g
     id="g149"
     transform="matrix(0.69288489,0,0,0.67558262,118.03805,87.665172)" /><g
     id="g151"
     transform="matrix(0.69288489,0,0,0.67558262,118.03805,87.665172)" /></svg>