<?xml version="1.0" encoding="UTF-8" standalone="no"?>
<!-- Generator: Adobe Illustrator 19.0.0, SVG Export Plug-In . SVG Version: 6.00 Build 0)  -->

<svg
   xmlns:dc="http://purl.org/dc/elements/1.1/"
   xmlns:cc="http://creativecommons.org/ns#"
   xmlns:rdf="http://www.w3.org/1999/02/22-rdf-syntax-ns#"
   xmlns:svg="http://www.w3.org/2000/svg"
   xmlns="http://www.w3.org/2000/svg"
   xmlns:sodipodi="http://sodipodi.sourceforge.net/DTD/sodipodi-0.dtd"
   xmlns:inkscape="http://www.inkscape.org/namespaces/inkscape"
   version="1.1"
   id="Layer_1"
   x="0px"
   y="0px"
   viewBox="0 0 482.2 482.2"
   style="enable-background:new 0 0 482.2 482.2;"
   xml:space="preserve"
   inkscape:version="0.91 r13725"
   sodipodi:docname="social-pages.svg"><metadata
     id="metadata83"><rdf:RDF><cc:Work
         rdf:about=""><dc:format>image/svg+xml</dc:format><dc:type
           rdf:resource="http://purl.org/dc/dcmitype/StillImage" /><dc:title></dc:title></cc:Work></rdf:RDF></metadata><defs
     id="defs81" /><sodipodi:namedview
     pagecolor="#ffffff"
     bordercolor="#666666"
     borderopacity="1"
     objecttolerance="10"
     gridtolerance="10"
     guidetolerance="10"
     inkscape:pageopacity="0"
     inkscape:pageshadow="2"
     inkscape:window-width="934"
     inkscape:window-height="774"
     id="namedview79"
     showgrid="false"
     inkscape:zoom="0.48942346"
     inkscape:cx="241.10001"
     inkscape:cy="241.10001"
     inkscape:window-x="779"
     inkscape:window-y="66"
     inkscape:window-maximized="0"
     inkscape:current-layer="Layer_1" /><circle
     style="fill:#FD8469;"
     cx="241.1"
     cy="241.1"
     r="241.1"
     id="circle3" /><rect
     x="98"
     y="94.6"
     style="fill:#E6E9EE;"
     width="179.9"
     height="223.9"
     id="rect5" /><g
     id="g15"><rect
       x="117.8"
       y="199.5"
       style="fill:#CED5E0;"
       width="140.4"
       height="9.2"
       id="rect17" /><rect
       x="117.8"
       y="220.1"
       style="fill:#CED5E0;"
       width="140.4"
       height="9.2"
       id="rect19" /><rect
       x="117.8"
       y="240.7"
       style="fill:#CED5E0;"
       width="140.4"
       height="9.2"
       id="rect21" /><rect
       x="117.8"
       y="261.2"
       style="fill:#CED5E0;"
       width="140.4"
       height="9.2"
       id="rect23" /><rect
       x="117.8"
       y="281.8"
       style="fill:#CED5E0;"
       width="72.1"
       height="9.2"
       id="rect25" /></g><rect
     x="204.3"
     y="163.7"
     style="fill:#FFFFFF;"
     width="179.9"
     height="223.9"
     id="rect27" /><g
     id="g37"><rect
       x="224"
       y="268.7"
       style="fill:#CED5E0;"
       width="140.4"
       height="9.2"
       id="rect39" /><rect
       x="224"
       y="289.3"
       style="fill:#CED5E0;"
       width="140.4"
       height="9.2"
       id="rect41" /><rect
       x="224"
       y="309.8"
       style="fill:#CED5E0;"
       width="140.4"
       height="9.2"
       id="rect43" /><rect
       x="224"
       y="330.4"
       style="fill:#CED5E0;"
       width="140.4"
       height="9.2"
       id="rect45" /><rect
       x="224"
       y="350.9"
       style="fill:#CED5E0;"
       width="72.1"
       height="9.2"
       id="rect47" /></g><g
     id="g49" /><g
     id="g51" /><g
     id="g53" /><g
     id="g55" /><g
     id="g57" /><g
     id="g59" /><g
     id="g61" /><g
     id="g63" /><g
     id="g65" /><g
     id="g67" /><g
     id="g69" /><g
     id="g71" /><g
     id="g73" /><g
     id="g75" /><g
     id="g77" /><path
     inkscape:connector-curvature="0"
     style="fill:#55acee"
     d="m 126.15892,102.49767 66.42453,0 c 3.79563,0 6.90131,2.39576 6.90131,5.32414 l 0,39.9307 c 0,2.92821 -3.10546,5.32414 -6.90131,5.32414 l -35.36909,0 c -0.94885,0 -4.31321,0.33272 -5.17598,1.06489 -2.58788,1.59718 -5.86616,3.32751 -9.48919,5.59029 0.0863,-0.0666 -4.3132,3.06136 -4.3132,0 l 0,-6.65518 -12.07707,0 c -3.79563,0 -6.90131,-2.39576 -6.90131,-5.32414 l 0,-39.93086 c 0,-2.92822 3.10568,-5.32398 6.90131,-5.32398 z"
     id="path5" /><path
     inkscape:connector-curvature="0"
     style="fill:#ffffff"
     d="m 191.81861,110.9731 c -1.38035,0.46587 -2.93308,0.73201 -4.4858,0.86516 1.63902,-0.66544 2.84677,-1.79691 3.45065,-3.06136 -1.46643,0.66543 -3.19176,1.06489 -4.91708,1.33103 -1.38036,-1.0649 -3.45066,-1.73033 -5.69356,-1.73033 -4.31321,0 -7.76386,2.46234 -7.76386,5.5237 0,0.46587 0.0863,0.86517 0.1726,1.26446 -6.46981,-0.19973 -12.24967,-2.46234 -16.0453,-5.79001 -0.69018,0.79859 -1.03515,1.7969 -1.03515,2.79523 0,1.93005 1.38034,3.5938 3.45065,4.59196 -1.29405,0 -2.50181,-0.26614 -3.53695,-0.66544 l 0,0.0666 c 0,2.66206 2.67418,4.92484 6.21113,5.45712 -0.69018,0.13315 -1.38035,0.19973 -2.07031,0.19973 -0.51757,0 -0.94885,-0.0665 -1.46643,-0.13315 0.94886,2.19619 3.88193,3.79337 7.24629,3.85995 -2.67418,1.46419 -6.03854,2.39576 -9.66179,2.39576 -0.60387,0 -1.20775,0 -1.89792,-0.0666 3.45065,1.59718 7.50518,2.46234 11.90468,2.46234 14.31998,0 22.17014,-8.45191 22.17014,-15.77269 l 0,-0.732 c 1.63881,-0.79842 2.93286,-1.73 3.96801,-2.86147 z"
     id="path7" /><path
     inkscape:connector-curvature="0"
     style="fill:#e2574c"
     d="m 236.03627,181.19176 83.68342,0 c 4.38335,0 7.96992,3.3438 7.96992,7.43097 l 0,53.87405 c 0,4.08693 -3.58631,7.43096 -7.96992,7.43096 l -83.68342,0 c -4.38335,0 -7.96992,-3.34379 -7.96992,-7.43096 l 0,-53.87405 c 0,-4.08694 3.58657,-7.43097 7.96992,-7.43097 z"
     id="path7-3" /><path
     inkscape:connector-curvature="0"
     style="fill:#ffffff"
     d="m 295.31212,213.51628 -24.50723,-14.21147 c -1.89282,-1.1146 -3.78564,-0.18585 -3.78564,2.04358 l 0,28.42296 c 0,2.2292 1.89282,3.15819 3.78564,2.04359 l 24.50723,-13.93295 c 2.39088,-1.39337 1.49417,-3.52964 0,-4.36571 z"
     id="path11" /></svg>