<?xml version="1.0" encoding="utf-8"?>
<!-- Generator: Adobe Illustrator 18.1.1, SVG Export Plug-In . SVG Version: 6.00 Build 0)  -->
<svg version="1.1" id="Layer_1" xmlns="http://www.w3.org/2000/svg" xmlns:xlink="http://www.w3.org/1999/xlink" x="0px" y="0px"
	 viewBox="0 0 158 36" enable-background="new 0 0 158 36" xml:space="preserve">
<g>
	<g>
		<path fill="#FFFFFF" d="M39,11.6h2c0.3,0,0.6,0.2,0.7,0.5l3.6,9.6l3.6-9.6c0.1-0.3,0.4-0.5,0.7-0.5h2c0.4,0,0.8,0.5,0.6,0.9
			l-5.3,13.1c-0.1,0.3-0.4,0.5-0.7,0.5h-1.8c-0.3,0-0.6-0.2-0.7-0.5l-5.3-13.1C38.2,12,38.5,11.6,39,11.6z"/>
		<path fill="#FFFFFF" d="M52.6,18.8L52.6,18.8c0-4.1,3.2-7.5,7.6-7.5c4.4,0,7.6,3.3,7.6,7.4v0c0,4.1-3.2,7.4-7.6,7.4
			C55.7,26.2,52.6,22.9,52.6,18.8z M64.5,18.8L64.5,18.8c0-2.5-1.8-4.5-4.3-4.5c-2.5,0-4.3,2-4.3,4.5v0c0,2.5,1.8,4.5,4.3,4.5
			S64.5,21.3,64.5,18.8z"/>
		<path fill="#FFFFFF" d="M71,11.6h1.7c0.4,0,0.7,0.3,0.7,0.7v12.9c0,0.4-0.3,0.7-0.7,0.7H71c-0.4,0-0.7-0.3-0.7-0.7V12.3
			C70.3,11.9,70.6,11.6,71,11.6z"/>
		<path fill="#FFFFFF" d="M75.9,18.8L75.9,18.8c0-4.1,3.1-7.5,7.5-7.5c2.4,0,3.9,0.7,5.1,1.7c0.3,0.2,0.3,0.7,0.1,1l-1.1,1.3
			c-0.2,0.3-0.6,0.3-0.9,0.1c-1-0.8-2-1.2-3.2-1.2c-2.4,0-4.2,2-4.2,4.5v0.2c0,2.3,1.9,4.3,4.2,4.3c1.4,0,2.3-0.5,3.2-1.3
			c0.3-0.2,0.7-0.2,0.9,0l1.1,1.1c0.3,0.3,0.3,0.7,0,1c-1.4,1.3-2.9,2.1-5.4,2.1C79,26.2,75.9,22.9,75.9,18.8z"/>
		<path fill="#FFFFFF" d="M91.8,11.6h9.4c0.4,0,0.7,0.3,0.7,0.7v1.4c0,0.4-0.3,0.7-0.7,0.7h-7v2.9h6.1c0.4,0,0.7,0.3,0.7,0.7v1.4
			c0,0.4-0.3,0.7-0.7,0.7h-6.1v3h7.1c0.4,0,0.7,0.3,0.7,0.7v1.4c0,0.4-0.3,0.7-0.7,0.7h-9.5c-0.4,0-0.7-0.3-0.7-0.7v-13
			C91.1,11.9,91.4,11.6,91.8,11.6z"/>
		<path fill="#FFFFFF" d="M105,11.6h1.9c0.2,0,0.4,0.1,0.5,0.3l6.5,8.6v-8.1c0-0.4,0.3-0.7,0.7-0.7h1.7c0.4,0,0.7,0.3,0.7,0.7v13
			c0,0.4-0.3,0.7-0.7,0.7h-1.7c-0.2,0-0.4-0.1-0.5-0.3l-6.7-8.8v8.4c0,0.4-0.3,0.7-0.7,0.7H105c-0.4,0-0.7-0.3-0.7-0.7v-13
			C104.3,11.9,104.6,11.6,105,11.6z"/>
		<path fill="#FFFFFF" d="M123.4,14.5h-3.8c-0.3,0-0.6-0.3-0.6-0.6v-1.7c0-0.3,0.3-0.6,0.6-0.6h10.7c0.3,0,0.6,0.3,0.6,0.6v1.7
			c0,0.3-0.3,0.6-0.6,0.6h-3.8v10.8c0,0.3-0.3,0.6-0.6,0.6h-2c-0.3,0-0.6-0.3-0.6-0.6V14.5z"/>
		<path fill="#FFFFFF" d="M133.4,11.6h9.5c0.4,0,0.6,0.3,0.6,0.6v1.5c0,0.4-0.3,0.6-0.6,0.6h-7v2.9h6.1c0.4,0,0.6,0.3,0.6,0.6v1.5
			c0,0.4-0.3,0.6-0.6,0.6h-6.1v3h7.1c0.4,0,0.6,0.3,0.6,0.6v1.5c0,0.4-0.3,0.6-0.6,0.6h-9.6c-0.4,0-0.6-0.3-0.6-0.6V12.2
			C132.8,11.9,133.1,11.6,133.4,11.6z"/>
		<path fill="#FFFFFF" d="M146,12.2c0-0.3,0.3-0.6,0.6-0.6h6c1.8,0,3.2,0.5,4.2,1.5c0.8,0.8,1.2,1.9,1.2,3.3v0
			c0,2.3-1.3,3.8-3.1,4.4l2.9,4.2c0.3,0.4,0,0.9-0.5,0.9H155c-0.2,0-0.4-0.1-0.5-0.3l-2.9-4.3h-2.5v4c0,0.3-0.3,0.6-0.6,0.6h-2
			c-0.3,0-0.6-0.3-0.6-0.6V12.2z M152.4,18.5c1.5,0,2.4-0.8,2.4-2v0c0-1.4-0.9-2-2.5-2h-3.1v4.1H152.4z"/>
	</g>
	<g>
		<path fill="#FFFFFF" d="M24.9,24.4l0,0.1c0,0.3,0.2,0.5,0.4,0.7l1,0.7c0.4,0.3,1.1,0.2,1.4-0.2c1.7-2.3,2.6-4.9,2.6-7.7
			s-0.9-5.5-2.6-7.7c-0.3-0.4-1-0.5-1.4-0.2l-1,0.7c-0.2,0.2-0.4,0.4-0.4,0.7l0,0.1c0,0.2,0.1,0.4,0.2,0.6c1.3,1.7,1.9,3.7,1.9,5.7
			c0,2.1-0.7,4.1-1.9,5.7C25,23.9,24.9,24.1,24.9,24.4z"/>
		<path fill="#FFFFFF" d="M20.7,21.3l0,0.1c0,0.3,0.2,0.5,0.4,0.7l0.8,0.6c0.4,0.3,1.1,0.2,1.4-0.2c1.9-2.6,1.9-6.5,0-9
			c-0.3-0.4-1-0.5-1.4-0.2l-0.8,0.6c-0.2,0.2-0.4,0.4-0.4,0.7l0,0.1c0,0.2,0.1,0.4,0.2,0.6c1.1,1.5,1.1,3.9,0,5.4
			C20.8,20.9,20.7,21.1,20.7,21.3z"/>
		<path fill="#FFFFFF" d="M29.6,28.2c-0.4-0.4-1.1-0.4-1.5,0c-2.7,2.7-6.3,4.2-10.1,4.2C10,32.4,3.6,25.9,3.6,18
			c0-7.9,6.4-14.4,14.4-14.4c3.8,0,7.4,1.5,10.1,4.2c0.4,0.4,1.1,0.4,1.5,0l1-1c0.4-0.4,0.4-1.1,0-1.5C27.2,2,22.7,0.1,17.9,0.1
			C8.1,0.1,0,8.1,0,18s8,17.9,17.9,17.9c4.8,0,9.2-1.9,12.6-5.2c0.4-0.4,0.4-1.1,0-1.5L29.6,28.2z"/>
		<circle fill="#FFFFFF" cx="17.8" cy="18" r="1.7"/>
	</g>
</g>
</svg>
