<?xml version="1.0" encoding="utf-8"?>
<!-- Generator: Adobe Illustrator 17.0.0, SVG Export Plug-In . SVG Version: 6.00 Build 0)  -->
<!DOCTYPE svg PUBLIC "-//W3C//DTD SVG 1.1//EN" "http://www.w3.org/Graphics/SVG/1.1/DTD/svg11.dtd">
<svg version="1.1" id="Layer_1" xmlns="http://www.w3.org/2000/svg" xmlns:xlink="http://www.w3.org/1999/xlink" x="0px" y="0px"
	 width="32px" height="32px" viewBox="0 0 32 32" enable-background="new 0 0 32 32" xml:space="preserve">
<g>
	<polygon points="25.233,3.312 25.233,23.833 28.555,26.698 28.555,3.312 	"/>
	<path d="M30.772,0.185H16.263c-0.558,0-0.996,0.436-0.996,0.993v5.603c0.391,0.627,0.634,1.372,0.634,2.17
		c0,0.799-0.244,1.545-0.634,2.172v2.049c0.195-0.017,0.234-0.028,0.364-0.028c0.587,0,1.2,0.178,1.59,0.489V2.14h12.507v25.992
		H17.221v-8.431c0,0-1.759,0.458-1.954,0.473v9.08c0,0.558,0.439,1.027,0.996,1.027h14.509c0.558,0,1.106-0.47,1.106-1.027V1.179
		C31.878,0.621,31.33,0.185,30.772,0.185z"/>
	<path d="M12.034,12.138c1.524,0,2.762-1.238,2.762-2.764c0-1.526-1.237-2.764-2.762-2.764c-1.528,0-2.764,1.238-2.764,2.764
		C9.269,10.9,10.505,12.138,12.034,12.138z"/>
	<path d="M9.76,18.12c0.921,0.642,2.014,0.961,3.27,0.961c0.685,0,2.85-0.47,3.368-0.636c0.581-0.201,0.874-0.481,1.049-0.824
		c0.217-0.58,0.114-1.189,0.114-1.189c-0.175-1.086-1.233-1.332-2.059-1.034c-1.228,0.441-2.903,0.817-3.914,0.125
		c-0.428-0.293-0.697-0.75-0.865-1.194c0.253-0.832,0.09-1.771-0.514-2.482c-0.947-1.114-2.616-1.248-3.729-0.302
		c-0.272,0.228-1.97,1.761-3.025,4.743c-0.514,0.235-1.134,0.421-1.879,0.509C0.706,16.9,0.083,17.69,0.183,18.56
		c0.097,0.807,0.782,1.403,1.576,1.403c0.062,0,0.124-0.005,0.186-0.014c0.259-0.027,0.505-0.068,0.744-0.116
		c-0.049,0.504-0.075,1.028-0.075,1.58c0,0.713,0.286,1.362,0.747,1.838c0.301,0.934,0.546,2.223,0.213,3.282
		c-0.251,0.79-0.799,1.393-1.677,1.84c-0.781,0.398-1.091,1.354-0.694,2.135c0.281,0.548,0.837,0.868,1.416,0.868
		c0.242,0,0.488-0.058,0.718-0.175c1.633-0.83,2.762-2.115,3.265-3.715c0.422-1.349,0.36-2.718,0.133-3.879
		c0.107-0.072,0.21-0.154,0.305-0.241c1.075,1.251,2.153,3.369,1.504,6.546c-0.175,0.857,0.379,1.696,1.236,1.873
		c0.108,0.018,0.216,0.03,0.321,0.03c0.736,0,1.399-0.517,1.553-1.267c1.092-5.342-1.47-8.94-3.646-10.65
		c0.149-1.104,0.454-1.987,0.779-2.662C9.059,17.554,9.38,17.855,9.76,18.12z"/>
</g>
</svg>
